<?xml version="1.0" standalone="no"?>
<!DOCTYPE svg PUBLIC "-//W3C//DTD SVG 20010904//EN"
 "http://www.w3.org/TR/2001/REC-SVG-20010904/DTD/svg10.dtd">
<svg version="1.0" xmlns="http://www.w3.org/2000/svg"
 width="1600.000000pt" height="1600.000000pt" viewBox="0 0 1600.000000 1600.000000"
 preserveAspectRatio="xMidYMid meet">
<metadata>
Created by potrace 1.14, written by Peter Selinger 2001-2017
</metadata>
<g transform="translate(0.000000,1600.000000) scale(0.100000,-0.100000)"
fill="#000000" stroke="none">
<path d="M3119 13996 c-2 -2 -22 -6 -44 -9 -126 -16 -252 -55 -384 -121 -313
-154 -560 -456 -647 -788 -17 -68 -18 -72 -33 -163 -6 -39 -10 -1778 -10
-4925 1 -4227 3 -4875 16 -4940 8 -41 16 -84 17 -95 16 -94 97 -274 177 -396
139 -209 373 -396 599 -478 19 -7 44 -17 55 -21 24 -10 88 -25 175 -42 52 -10
1039 -13 4950 -13 2687 0 4908 3 4937 7 109 15 255 60 360 111 139 67 230 133
349 252 188 188 308 423 351 690 10 61 11 9792 1 9855 -31 203 -95 367 -210
539 -63 94 -230 261 -323 323 -133 88 -285 155 -417 183 -40 9 -82 19 -93 23
-21 7 -9818 15 -9826 8z m9746 -506 c216 -36 392 -150 510 -330 55 -84 69
-116 113 -264 3 -12 8 -330 9 -708 l4 -688 -5501 0 -5501 0 4 688 c1 378 6
700 10 715 80 304 276 503 572 578 67 17 304 17 4900 18 2657 0 4853 -4 4880
-9z m632 -6427 c-1 -2166 -5 -3947 -9 -3959 -3 -11 -13 -43 -21 -70 -78 -263
-314 -475 -582 -522 -22 -4 -2225 -7 -4895 -7 -4745 0 -4857 0 -4925 19 -265
72 -459 263 -542 533 -17 55 -18 246 -20 4001 l-3 3942 5500 0 5500 0 -3
-3937z"/>
<path d="M3880 12984 c-90 -24 -161 -65 -231 -134 -258 -255 -161 -691 181
-817 100 -37 244 -40 332 -5 291 111 416 423 282 699 -52 108 -177 215 -292
249 -76 22 -203 26 -272 8z"/>
<path d="M5361 12979 c-237 -68 -389 -304 -353 -550 16 -111 60 -197 142 -280
265 -265 698 -160 826 201 23 66 27 194 9 260 -8 30 -17 63 -20 73 -8 34 -58
111 -103 160 -51 54 -134 107 -207 132 -73 25 -214 27 -294 4z"/>
<path d="M6910 12994 c-98 -20 -212 -85 -282 -163 -155 -173 -168 -441 -29
-624 188 -249 533 -275 751 -57 106 106 151 221 145 370 -8 210 -135 383 -331
451 -58 19 -203 33 -254 23z"/>
<path d="M9010 10077 c0 -2 -16 -48 -36 -103 -47 -130 -89 -248 -129 -362 -18
-51 -35 -95 -39 -99 -3 -3 -6 -13 -6 -21 0 -8 -6 -28 -14 -45 -7 -18 -28 -72
-46 -122 -62 -174 -79 -221 -124 -345 -24 -69 -77 -215 -116 -325 -40 -110
-88 -243 -107 -295 -19 -52 -36 -99 -37 -105 -2 -5 -7 -21 -13 -35 -6 -14 -20
-52 -31 -85 -43 -123 -111 -312 -137 -380 -14 -38 -28 -77 -30 -85 -3 -14 -67
-190 -85 -235 -5 -11 -43 -117 -85 -235 -41 -118 -78 -222 -82 -230 -3 -8 -7
-19 -8 -25 -4 -14 -84 -235 -95 -260 -7 -17 -81 -223 -300 -835 -21 -58 -61
-170 -89 -250 -29 -80 -56 -154 -61 -165 -4 -11 -33 -90 -63 -175 -110 -309
-192 -536 -297 -825 -34 -93 -63 -174 -64 -180 -2 -5 -6 -17 -9 -25 -14 -33
-119 -327 -129 -358 -5 -19 -8 -35 -6 -37 5 -5 449 -165 458 -165 7 0 104 263
276 750 30 85 59 164 64 175 5 11 64 173 131 360 67 187 159 446 206 575 47
129 89 246 93 260 4 14 25 70 45 125 20 55 58 161 84 235 100 281 213 596 221
615 4 11 15 38 23 60 22 55 137 376 141 395 3 8 18 51 34 95 28 73 144 393
190 525 80 225 175 489 183 510 6 14 27 70 45 125 19 55 39 109 43 120 12 26
53 142 97 270 19 55 41 116 49 135 8 19 58 157 110 305 53 149 100 279 105
290 4 11 22 61 40 110 17 50 38 106 46 125 8 19 16 48 17 64 2 27 -2 30 -58
48 -33 10 -69 23 -80 28 -33 15 -306 110 -316 110 -5 0 -9 -1 -9 -3z"/>
<path d="M5768 8916 c-14 -11 -53 -46 -88 -76 -35 -30 -81 -71 -103 -90 -38
-33 -198 -173 -223 -195 -6 -5 -37 -32 -69 -60 -32 -27 -70 -61 -85 -75 -15
-14 -51 -46 -81 -72 -154 -132 -211 -182 -240 -209 -15 -14 -49 -44 -75 -65
-26 -21 -52 -44 -58 -50 -6 -5 -49 -43 -96 -84 -47 -41 -101 -89 -120 -106
-79 -70 -149 -132 -210 -184 -35 -30 -87 -75 -115 -100 -28 -25 -84 -74 -125
-110 -100 -88 -137 -127 -167 -178 -99 -168 -99 -356 0 -524 30 -50 69 -92
156 -168 35 -30 69 -60 75 -65 6 -6 61 -53 121 -105 61 -52 115 -100 120 -106
6 -6 42 -37 80 -70 39 -32 75 -64 80 -70 6 -6 46 -42 90 -79 44 -38 82 -71 85
-74 3 -4 34 -31 70 -61 36 -30 70 -60 75 -66 6 -6 98 -87 205 -180 180 -156
224 -195 284 -249 13 -11 47 -41 77 -67 30 -25 123 -107 208 -181 l154 -134
115 131 c63 72 128 147 145 166 16 19 39 45 50 57 l20 22 -33 27 c-18 15 -37
32 -44 38 -6 6 -47 43 -91 81 -44 39 -95 84 -115 101 -19 17 -91 80 -160 140
-69 60 -127 111 -130 114 -3 3 -95 84 -205 180 -110 96 -216 189 -235 206 -19
17 -114 100 -210 184 -270 235 -301 262 -355 310 -119 105 -188 165 -199 173
-7 5 -3 14 14 28 14 12 54 47 90 79 36 31 88 77 116 101 78 68 186 163 198
174 11 10 214 187 270 235 16 14 37 32 46 40 14 13 105 93 195 171 16 15 55
48 85 75 30 26 66 57 79 69 13 11 34 29 46 40 13 11 67 58 121 105 54 47 105
92 114 100 8 8 47 42 85 75 39 33 72 62 75 65 3 3 58 52 123 109 118 103 118
103 99 125 -10 11 -67 77 -127 146 -60 69 -112 127 -115 130 -3 3 -19 21 -36
41 l-31 37 -25 -22z"/>
<path d="M10212 8755 c-95 -97 -172 -179 -172 -184 0 -4 75 -81 168 -171 92
-89 324 -316 516 -504 192 -187 385 -376 430 -420 44 -43 173 -169 284 -278
l204 -200 -85 -82 c-47 -44 -221 -214 -387 -376 -166 -162 -354 -346 -418
-409 -447 -434 -712 -696 -712 -702 0 -4 77 -86 171 -183 l172 -176 131 129
c72 71 183 180 248 243 64 62 270 264 459 448 188 184 365 357 393 384 185
177 405 398 429 429 27 36 73 130 84 172 13 47 11 203 -3 255 -34 128 -75 176
-544 630 -58 56 -242 236 -410 400 -168 164 -359 351 -425 415 -66 64 -174
170 -241 236 l-120 119 -172 -175z"/>
</g>
</svg>
